# xmcd
#
# Track frame offsets: 
#        150
#        13647
#        30797
#        56992
#        73176
#        82853
#        102392
#        115845
#        135999
#        151229
#        175794
#        196116
#
# Disc length: 2810 seconds
#
# Revision: 0
# Processed by: cddbd v1.5.2PL0 Copyright (c) Steve Scherf et al.
# Submitted via: ExactAudioCopyFreeDBPlugin 1.0
#
DISCID=8d0af80c
DTITLE=Miss Zippy and The Blues Wail - Cool Beans
DYEAR=2017
DGENRE=Blues
TTITLE0=Put a Lid on It
TTITLE1=I Got a Woman
TTITLE2=Magic Honey
TTITLE3=Ballpeen Hammer
TTITLE4=Homemade Haircut
TTITLE5=I Wanna Make Love to You
TTITLE6=Up the Line
TTITLE7=Chocolate Jesus
TTITLE8=Wonderful Time
TTITLE9=Lovesick Blues
TTITLE10=Satellite
TTITLE11=Bye, Bye Bird
EXTD=
EXTT0=
EXTT1=
EXTT2=
EXTT3=
EXTT4=
EXTT5=
EXTT6=
EXTT7=
EXTT8=
EXTT9=
EXTT10=
EXTT11=
PLAYORDER=
